<mxfile host="Electron" agent="Mozilla/5.0 (Windows NT 10.0; Win64; x64) AppleWebKit/537.36 (KHTML, like Gecko) draw.io/26.0.9 Chrome/128.0.6613.186 Electron/32.2.5 Safari/537.36" version="26.0.9" pages="3">
  <diagram id="eQE56r2MzLTsBc735SG8" name="Contexto">
    <mxGraphModel dx="2032" dy="1587" grid="1" gridSize="10" guides="1" tooltips="1" connect="1" arrows="1" fold="1" page="0" pageScale="1" pageWidth="827" pageHeight="1169" math="0" shadow="0">
      <root>
        <mxCell id="0" />
        <mxCell id="1" parent="0" />
        <mxCell id="cf2LSPzD_l2n2s6JIp_w-4" style="edgeStyle=orthogonalEdgeStyle;rounded=0;orthogonalLoop=1;jettySize=auto;html=1;" edge="1" parent="1" source="cf2LSPzD_l2n2s6JIp_w-2" target="cf2LSPzD_l2n2s6JIp_w-3">
          <mxGeometry relative="1" as="geometry" />
        </mxCell>
        <mxCell id="cf2LSPzD_l2n2s6JIp_w-2" value="" style="html=1;verticalLabelPosition=bottom;align=center;labelBackgroundColor=#ffffff;verticalAlign=top;strokeWidth=2;strokeColor=#0080F0;shadow=0;dashed=0;shape=mxgraph.ios7.icons.user;" vertex="1" parent="1">
          <mxGeometry x="-60" y="-220" width="100" height="100" as="geometry" />
        </mxCell>
        <mxCell id="cf2LSPzD_l2n2s6JIp_w-7" style="edgeStyle=orthogonalEdgeStyle;rounded=0;orthogonalLoop=1;jettySize=auto;html=1;" edge="1" parent="1" source="cf2LSPzD_l2n2s6JIp_w-3" target="cf2LSPzD_l2n2s6JIp_w-6">
          <mxGeometry relative="1" as="geometry">
            <Array as="points">
              <mxPoint x="-10" y="130" />
              <mxPoint x="-370" y="130" />
            </Array>
          </mxGeometry>
        </mxCell>
        <mxCell id="cf2LSPzD_l2n2s6JIp_w-9" style="edgeStyle=orthogonalEdgeStyle;rounded=0;orthogonalLoop=1;jettySize=auto;html=1;" edge="1" parent="1" source="cf2LSPzD_l2n2s6JIp_w-3" target="cf2LSPzD_l2n2s6JIp_w-8">
          <mxGeometry relative="1" as="geometry">
            <Array as="points">
              <mxPoint x="-10" y="130" />
              <mxPoint x="-110" y="130" />
            </Array>
          </mxGeometry>
        </mxCell>
        <mxCell id="cf2LSPzD_l2n2s6JIp_w-11" style="edgeStyle=orthogonalEdgeStyle;rounded=0;orthogonalLoop=1;jettySize=auto;html=1;" edge="1" parent="1" source="cf2LSPzD_l2n2s6JIp_w-3" target="cf2LSPzD_l2n2s6JIp_w-10">
          <mxGeometry relative="1" as="geometry">
            <Array as="points">
              <mxPoint x="-10" y="130" />
              <mxPoint x="130" y="130" />
            </Array>
          </mxGeometry>
        </mxCell>
        <mxCell id="cf2LSPzD_l2n2s6JIp_w-13" style="edgeStyle=orthogonalEdgeStyle;rounded=0;orthogonalLoop=1;jettySize=auto;html=1;" edge="1" parent="1" source="cf2LSPzD_l2n2s6JIp_w-3" target="cf2LSPzD_l2n2s6JIp_w-12">
          <mxGeometry relative="1" as="geometry">
            <Array as="points">
              <mxPoint x="-10" y="130" />
              <mxPoint x="370" y="130" />
            </Array>
          </mxGeometry>
        </mxCell>
        <mxCell id="cf2LSPzD_l2n2s6JIp_w-3" value="Simulador" style="rounded=1;whiteSpace=wrap;html=1;" vertex="1" parent="1">
          <mxGeometry x="-70" width="120" height="60" as="geometry" />
        </mxCell>
        <mxCell id="cf2LSPzD_l2n2s6JIp_w-5" value="Configura / Ejecuta" style="text;html=1;align=center;verticalAlign=middle;resizable=0;points=[];autosize=1;strokeColor=none;fillColor=none;" vertex="1" parent="1">
          <mxGeometry x="-10" y="-80" width="130" height="30" as="geometry" />
        </mxCell>
        <mxCell id="cf2LSPzD_l2n2s6JIp_w-6" value="Presas (Prey)" style="ellipse;whiteSpace=wrap;html=1;aspect=fixed;" vertex="1" parent="1">
          <mxGeometry x="-410" y="280" width="80" height="80" as="geometry" />
        </mxCell>
        <mxCell id="cf2LSPzD_l2n2s6JIp_w-8" value="Depredador (Predator)" style="ellipse;whiteSpace=wrap;html=1;aspect=fixed;" vertex="1" parent="1">
          <mxGeometry x="-150" y="280" width="80" height="80" as="geometry" />
        </mxCell>
        <mxCell id="cf2LSPzD_l2n2s6JIp_w-10" value="Generador Aleatorio (rand)" style="ellipse;whiteSpace=wrap;html=1;aspect=fixed;" vertex="1" parent="1">
          <mxGeometry x="90" y="280" width="80" height="80" as="geometry" />
        </mxCell>
        <mxCell id="cf2LSPzD_l2n2s6JIp_w-12" value="Entorno Visual (macroquad)" style="ellipse;whiteSpace=wrap;html=1;aspect=fixed;" vertex="1" parent="1">
          <mxGeometry x="330" y="280" width="80" height="80" as="geometry" />
        </mxCell>
        <mxCell id="cf2LSPzD_l2n2s6JIp_w-14" value="Envajecimiento / Reproducción" style="text;html=1;align=center;verticalAlign=middle;resizable=0;points=[];autosize=1;strokeColor=none;fillColor=none;" vertex="1" parent="1">
          <mxGeometry x="-370" y="210" width="190" height="30" as="geometry" />
        </mxCell>
        <mxCell id="cf2LSPzD_l2n2s6JIp_w-15" value="Interacciópn de caza" style="text;html=1;align=center;verticalAlign=middle;resizable=0;points=[];autosize=1;strokeColor=none;fillColor=none;" vertex="1" parent="1">
          <mxGeometry x="-110" y="210" width="130" height="30" as="geometry" />
        </mxCell>
        <mxCell id="cf2LSPzD_l2n2s6JIp_w-16" value="Evento aleatorio" style="text;html=1;align=center;verticalAlign=middle;resizable=0;points=[];autosize=1;strokeColor=none;fillColor=none;" vertex="1" parent="1">
          <mxGeometry x="140" y="210" width="110" height="30" as="geometry" />
        </mxCell>
        <mxCell id="cf2LSPzD_l2n2s6JIp_w-17" value="Mostrar simulación" style="text;html=1;align=center;verticalAlign=middle;resizable=0;points=[];autosize=1;strokeColor=none;fillColor=none;" vertex="1" parent="1">
          <mxGeometry x="370" y="210" width="120" height="30" as="geometry" />
        </mxCell>
      </root>
    </mxGraphModel>
  </diagram>
  <diagram name="UML" id="6pZYsoUrFxCc_vlKZ7TP">
    <mxGraphModel dx="1573" dy="1130" grid="1" gridSize="10" guides="1" tooltips="1" connect="1" arrows="1" fold="1" page="0" pageScale="1" pageWidth="827" pageHeight="1169" math="0" shadow="0">
      <root>
        <mxCell id="0" />
        <mxCell id="1" parent="0" />
        <mxCell id="vMjMHNE6Fv7_3eCzwMig-64" style="edgeStyle=orthogonalEdgeStyle;rounded=0;orthogonalLoop=1;jettySize=auto;html=1;entryX=0.5;entryY=0;entryDx=0;entryDy=0;" edge="1" parent="1" source="vMjMHNE6Fv7_3eCzwMig-12" target="vMjMHNE6Fv7_3eCzwMig-22">
          <mxGeometry relative="1" as="geometry" />
        </mxCell>
        <mxCell id="vMjMHNE6Fv7_3eCzwMig-82" style="edgeStyle=orthogonalEdgeStyle;rounded=0;orthogonalLoop=1;jettySize=auto;html=1;entryX=0.5;entryY=0;entryDx=0;entryDy=0;" edge="1" parent="1" source="vMjMHNE6Fv7_3eCzwMig-12" target="vMjMHNE6Fv7_3eCzwMig-65">
          <mxGeometry relative="1" as="geometry" />
        </mxCell>
        <mxCell id="vMjMHNE6Fv7_3eCzwMig-12" value="trait.rs" style="swimlane;fontStyle=1;align=center;verticalAlign=top;childLayout=stackLayout;horizontal=1;startSize=26;horizontalStack=0;resizeParent=1;resizeParentMax=0;resizeLast=0;collapsible=1;marginBottom=0;whiteSpace=wrap;html=1;" vertex="1" parent="1">
          <mxGeometry x="140" y="160" width="370" height="242" as="geometry" />
        </mxCell>
        <mxCell id="vMjMHNE6Fv7_3eCzwMig-13" value="trait Organismo" style="text;strokeColor=none;fillColor=none;align=left;verticalAlign=top;spacingLeft=4;spacingRight=4;overflow=hidden;rotatable=0;points=[[0,0.5],[1,0.5]];portConstraint=eastwest;whiteSpace=wrap;html=1;" vertex="1" parent="vMjMHNE6Fv7_3eCzwMig-12">
          <mxGeometry y="26" width="370" height="26" as="geometry" />
        </mxCell>
        <mxCell id="vMjMHNE6Fv7_3eCzwMig-14" value="" style="line;strokeWidth=1;fillColor=none;align=left;verticalAlign=middle;spacingTop=-1;spacingLeft=3;spacingRight=3;rotatable=0;labelPosition=right;points=[];portConstraint=eastwest;strokeColor=inherit;" vertex="1" parent="vMjMHNE6Fv7_3eCzwMig-12">
          <mxGeometry y="52" width="370" height="8" as="geometry" />
        </mxCell>
        <mxCell id="vMjMHNE6Fv7_3eCzwMig-15" value="+ envejecer():&amp;nbsp;" style="text;strokeColor=none;fillColor=none;align=left;verticalAlign=top;spacingLeft=4;spacingRight=4;overflow=hidden;rotatable=0;points=[[0,0.5],[1,0.5]];portConstraint=eastwest;whiteSpace=wrap;html=1;" vertex="1" parent="vMjMHNE6Fv7_3eCzwMig-12">
          <mxGeometry y="60" width="370" height="26" as="geometry" />
        </mxCell>
        <mxCell id="vMjMHNE6Fv7_3eCzwMig-16" value="+ reproduciOrganisrse(rng, poblacion): Vec&amp;lt; Organismo&amp;gt;" style="text;strokeColor=none;fillColor=none;align=left;verticalAlign=top;spacingLeft=4;spacingRight=4;overflow=hidden;rotatable=0;points=[[0,0.5],[1,0.5]];portConstraint=eastwest;whiteSpace=wrap;html=1;" vertex="1" parent="vMjMHNE6Fv7_3eCzwMig-12">
          <mxGeometry y="86" width="370" height="26" as="geometry" />
        </mxCell>
        <mxCell id="vMjMHNE6Fv7_3eCzwMig-18" value="+ peso():&amp;nbsp;" style="text;strokeColor=none;fillColor=none;align=left;verticalAlign=top;spacingLeft=4;spacingRight=4;overflow=hidden;rotatable=0;points=[[0,0.5],[1,0.5]];portConstraint=eastwest;whiteSpace=wrap;html=1;" vertex="1" parent="vMjMHNE6Fv7_3eCzwMig-12">
          <mxGeometry y="112" width="370" height="26" as="geometry" />
        </mxCell>
        <mxCell id="vMjMHNE6Fv7_3eCzwMig-17" value="+ esta_vivo():&amp;nbsp;" style="text;strokeColor=none;fillColor=none;align=left;verticalAlign=top;spacingLeft=4;spacingRight=4;overflow=hidden;rotatable=0;points=[[0,0.5],[1,0.5]];portConstraint=eastwest;whiteSpace=wrap;html=1;" vertex="1" parent="vMjMHNE6Fv7_3eCzwMig-12">
          <mxGeometry y="138" width="370" height="26" as="geometry" />
        </mxCell>
        <mxCell id="vMjMHNE6Fv7_3eCzwMig-19" value="+ nombre():&amp;nbsp;" style="text;strokeColor=none;fillColor=none;align=left;verticalAlign=top;spacingLeft=4;spacingRight=4;overflow=hidden;rotatable=0;points=[[0,0.5],[1,0.5]];portConstraint=eastwest;whiteSpace=wrap;html=1;" vertex="1" parent="vMjMHNE6Fv7_3eCzwMig-12">
          <mxGeometry y="164" width="370" height="26" as="geometry" />
        </mxCell>
        <mxCell id="vMjMHNE6Fv7_3eCzwMig-20" value="+ especie():Species&amp;nbsp;" style="text;strokeColor=none;fillColor=none;align=left;verticalAlign=top;spacingLeft=4;spacingRight=4;overflow=hidden;rotatable=0;points=[[0,0.5],[1,0.5]];portConstraint=eastwest;whiteSpace=wrap;html=1;" vertex="1" parent="vMjMHNE6Fv7_3eCzwMig-12">
          <mxGeometry y="190" width="370" height="26" as="geometry" />
        </mxCell>
        <mxCell id="vMjMHNE6Fv7_3eCzwMig-21" value="+ es_macho():bool&amp;nbsp;" style="text;strokeColor=none;fillColor=none;align=left;verticalAlign=top;spacingLeft=4;spacingRight=4;overflow=hidden;rotatable=0;points=[[0,0.5],[1,0.5]];portConstraint=eastwest;whiteSpace=wrap;html=1;" vertex="1" parent="vMjMHNE6Fv7_3eCzwMig-12">
          <mxGeometry y="216" width="370" height="26" as="geometry" />
        </mxCell>
        <mxCell id="vMjMHNE6Fv7_3eCzwMig-97" style="edgeStyle=orthogonalEdgeStyle;rounded=0;orthogonalLoop=1;jettySize=auto;html=1;" edge="1" parent="1" source="vMjMHNE6Fv7_3eCzwMig-22" target="vMjMHNE6Fv7_3eCzwMig-85">
          <mxGeometry relative="1" as="geometry">
            <Array as="points">
              <mxPoint x="330" y="1104" />
            </Array>
          </mxGeometry>
        </mxCell>
        <mxCell id="vMjMHNE6Fv7_3eCzwMig-22" value="prey.rs" style="swimlane;fontStyle=1;align=center;verticalAlign=top;childLayout=stackLayout;horizontal=1;startSize=26;horizontalStack=0;resizeParent=1;resizeParentMax=0;resizeLast=0;collapsible=1;marginBottom=0;whiteSpace=wrap;html=1;" vertex="1" parent="1">
          <mxGeometry x="140" y="470" width="370" height="372" as="geometry" />
        </mxCell>
        <mxCell id="vMjMHNE6Fv7_3eCzwMig-23" value="+ id: u32" style="text;strokeColor=none;fillColor=none;align=left;verticalAlign=top;spacingLeft=4;spacingRight=4;overflow=hidden;rotatable=0;points=[[0,0.5],[1,0.5]];portConstraint=eastwest;whiteSpace=wrap;html=1;" vertex="1" parent="vMjMHNE6Fv7_3eCzwMig-22">
          <mxGeometry y="26" width="370" height="26" as="geometry" />
        </mxCell>
        <mxCell id="vMjMHNE6Fv7_3eCzwMig-26" value="+ species: Species" style="text;strokeColor=none;fillColor=none;align=left;verticalAlign=top;spacingLeft=4;spacingRight=4;overflow=hidden;rotatable=0;points=[[0,0.5],[1,0.5]];portConstraint=eastwest;whiteSpace=wrap;html=1;" vertex="1" parent="vMjMHNE6Fv7_3eCzwMig-22">
          <mxGeometry y="52" width="370" height="26" as="geometry" />
        </mxCell>
        <mxCell id="vMjMHNE6Fv7_3eCzwMig-32" value="+ sex: Sex" style="text;strokeColor=none;fillColor=none;align=left;verticalAlign=top;spacingLeft=4;spacingRight=4;overflow=hidden;rotatable=0;points=[[0,0.5],[1,0.5]];portConstraint=eastwest;whiteSpace=wrap;html=1;" vertex="1" parent="vMjMHNE6Fv7_3eCzwMig-22">
          <mxGeometry y="78" width="370" height="26" as="geometry" />
        </mxCell>
        <mxCell id="vMjMHNE6Fv7_3eCzwMig-33" value="+ age-days: u32" style="text;strokeColor=none;fillColor=none;align=left;verticalAlign=top;spacingLeft=4;spacingRight=4;overflow=hidden;rotatable=0;points=[[0,0.5],[1,0.5]];portConstraint=eastwest;whiteSpace=wrap;html=1;" vertex="1" parent="vMjMHNE6Fv7_3eCzwMig-22">
          <mxGeometry y="104" width="370" height="26" as="geometry" />
        </mxCell>
        <mxCell id="vMjMHNE6Fv7_3eCzwMig-34" value="+ weight_kg: f64" style="text;strokeColor=none;fillColor=none;align=left;verticalAlign=top;spacingLeft=4;spacingRight=4;overflow=hidden;rotatable=0;points=[[0,0.5],[1,0.5]];portConstraint=eastwest;whiteSpace=wrap;html=1;" vertex="1" parent="vMjMHNE6Fv7_3eCzwMig-22">
          <mxGeometry y="130" width="370" height="26" as="geometry" />
        </mxCell>
        <mxCell id="vMjMHNE6Fv7_3eCzwMig-35" value="+ vivo: bool" style="text;strokeColor=none;fillColor=none;align=left;verticalAlign=top;spacingLeft=4;spacingRight=4;overflow=hidden;rotatable=0;points=[[0,0.5],[1,0.5]];portConstraint=eastwest;whiteSpace=wrap;html=1;" vertex="1" parent="vMjMHNE6Fv7_3eCzwMig-22">
          <mxGeometry y="156" width="370" height="26" as="geometry" />
        </mxCell>
        <mxCell id="vMjMHNE6Fv7_3eCzwMig-24" value="" style="line;strokeWidth=1;fillColor=none;align=left;verticalAlign=middle;spacingTop=-1;spacingLeft=3;spacingRight=3;rotatable=0;labelPosition=right;points=[];portConstraint=eastwest;strokeColor=inherit;" vertex="1" parent="vMjMHNE6Fv7_3eCzwMig-22">
          <mxGeometry y="182" width="370" height="8" as="geometry" />
        </mxCell>
        <mxCell id="vMjMHNE6Fv7_3eCzwMig-43" value="+ envejecer():&amp;nbsp;" style="text;strokeColor=none;fillColor=none;align=left;verticalAlign=top;spacingLeft=4;spacingRight=4;overflow=hidden;rotatable=0;points=[[0,0.5],[1,0.5]];portConstraint=eastwest;whiteSpace=wrap;html=1;" vertex="1" parent="vMjMHNE6Fv7_3eCzwMig-22">
          <mxGeometry y="190" width="370" height="26" as="geometry" />
        </mxCell>
        <mxCell id="vMjMHNE6Fv7_3eCzwMig-44" value="+ reproduciOrganisrse(rng, poblacion): Vec&amp;lt; Organismo&amp;gt;" style="text;strokeColor=none;fillColor=none;align=left;verticalAlign=top;spacingLeft=4;spacingRight=4;overflow=hidden;rotatable=0;points=[[0,0.5],[1,0.5]];portConstraint=eastwest;whiteSpace=wrap;html=1;" vertex="1" parent="vMjMHNE6Fv7_3eCzwMig-22">
          <mxGeometry y="216" width="370" height="26" as="geometry" />
        </mxCell>
        <mxCell id="vMjMHNE6Fv7_3eCzwMig-45" value="+ peso():&amp;nbsp;" style="text;strokeColor=none;fillColor=none;align=left;verticalAlign=top;spacingLeft=4;spacingRight=4;overflow=hidden;rotatable=0;points=[[0,0.5],[1,0.5]];portConstraint=eastwest;whiteSpace=wrap;html=1;" vertex="1" parent="vMjMHNE6Fv7_3eCzwMig-22">
          <mxGeometry y="242" width="370" height="26" as="geometry" />
        </mxCell>
        <mxCell id="vMjMHNE6Fv7_3eCzwMig-46" value="+ esta_vivo():&amp;nbsp;" style="text;strokeColor=none;fillColor=none;align=left;verticalAlign=top;spacingLeft=4;spacingRight=4;overflow=hidden;rotatable=0;points=[[0,0.5],[1,0.5]];portConstraint=eastwest;whiteSpace=wrap;html=1;" vertex="1" parent="vMjMHNE6Fv7_3eCzwMig-22">
          <mxGeometry y="268" width="370" height="26" as="geometry" />
        </mxCell>
        <mxCell id="vMjMHNE6Fv7_3eCzwMig-47" value="+ nombre():&amp;nbsp;" style="text;strokeColor=none;fillColor=none;align=left;verticalAlign=top;spacingLeft=4;spacingRight=4;overflow=hidden;rotatable=0;points=[[0,0.5],[1,0.5]];portConstraint=eastwest;whiteSpace=wrap;html=1;" vertex="1" parent="vMjMHNE6Fv7_3eCzwMig-22">
          <mxGeometry y="294" width="370" height="26" as="geometry" />
        </mxCell>
        <mxCell id="vMjMHNE6Fv7_3eCzwMig-48" value="+ especie():Species&amp;nbsp;" style="text;strokeColor=none;fillColor=none;align=left;verticalAlign=top;spacingLeft=4;spacingRight=4;overflow=hidden;rotatable=0;points=[[0,0.5],[1,0.5]];portConstraint=eastwest;whiteSpace=wrap;html=1;" vertex="1" parent="vMjMHNE6Fv7_3eCzwMig-22">
          <mxGeometry y="320" width="370" height="26" as="geometry" />
        </mxCell>
        <mxCell id="vMjMHNE6Fv7_3eCzwMig-49" value="+ es_macho():bool&amp;nbsp;" style="text;strokeColor=none;fillColor=none;align=left;verticalAlign=top;spacingLeft=4;spacingRight=4;overflow=hidden;rotatable=0;points=[[0,0.5],[1,0.5]];portConstraint=eastwest;whiteSpace=wrap;html=1;" vertex="1" parent="vMjMHNE6Fv7_3eCzwMig-22">
          <mxGeometry y="346" width="370" height="26" as="geometry" />
        </mxCell>
        <mxCell id="vMjMHNE6Fv7_3eCzwMig-63" style="edgeStyle=orthogonalEdgeStyle;rounded=0;orthogonalLoop=1;jettySize=auto;html=1;" edge="1" parent="1" source="vMjMHNE6Fv7_3eCzwMig-50" target="vMjMHNE6Fv7_3eCzwMig-26">
          <mxGeometry relative="1" as="geometry" />
        </mxCell>
        <mxCell id="vMjMHNE6Fv7_3eCzwMig-50" value="prey.rs &amp;lt;&amp;lt;enumeration&amp;gt;&amp;gt;" style="swimlane;fontStyle=1;align=center;verticalAlign=top;childLayout=stackLayout;horizontal=1;startSize=26;horizontalStack=0;resizeParent=1;resizeParentMax=0;resizeLast=0;collapsible=1;marginBottom=0;whiteSpace=wrap;html=1;" vertex="1" parent="1">
          <mxGeometry x="590" y="370" width="370" height="138" as="geometry" />
        </mxCell>
        <mxCell id="vMjMHNE6Fv7_3eCzwMig-51" value="Species" style="text;strokeColor=none;fillColor=none;align=left;verticalAlign=top;spacingLeft=4;spacingRight=4;overflow=hidden;rotatable=0;points=[[0,0.5],[1,0.5]];portConstraint=eastwest;whiteSpace=wrap;html=1;" vertex="1" parent="vMjMHNE6Fv7_3eCzwMig-50">
          <mxGeometry y="26" width="370" height="26" as="geometry" />
        </mxCell>
        <mxCell id="vMjMHNE6Fv7_3eCzwMig-52" value="" style="line;strokeWidth=1;fillColor=none;align=left;verticalAlign=middle;spacingTop=-1;spacingLeft=3;spacingRight=3;rotatable=0;labelPosition=right;points=[];portConstraint=eastwest;strokeColor=inherit;" vertex="1" parent="vMjMHNE6Fv7_3eCzwMig-50">
          <mxGeometry y="52" width="370" height="8" as="geometry" />
        </mxCell>
        <mxCell id="vMjMHNE6Fv7_3eCzwMig-53" value="Cow" style="text;strokeColor=none;fillColor=none;align=left;verticalAlign=top;spacingLeft=4;spacingRight=4;overflow=hidden;rotatable=0;points=[[0,0.5],[1,0.5]];portConstraint=eastwest;whiteSpace=wrap;html=1;" vertex="1" parent="vMjMHNE6Fv7_3eCzwMig-50">
          <mxGeometry y="60" width="370" height="26" as="geometry" />
        </mxCell>
        <mxCell id="vMjMHNE6Fv7_3eCzwMig-54" value="Goat" style="text;strokeColor=none;fillColor=none;align=left;verticalAlign=top;spacingLeft=4;spacingRight=4;overflow=hidden;rotatable=0;points=[[0,0.5],[1,0.5]];portConstraint=eastwest;whiteSpace=wrap;html=1;" vertex="1" parent="vMjMHNE6Fv7_3eCzwMig-50">
          <mxGeometry y="86" width="370" height="26" as="geometry" />
        </mxCell>
        <mxCell id="vMjMHNE6Fv7_3eCzwMig-55" value="Rabbit" style="text;strokeColor=none;fillColor=none;align=left;verticalAlign=top;spacingLeft=4;spacingRight=4;overflow=hidden;rotatable=0;points=[[0,0.5],[1,0.5]];portConstraint=eastwest;whiteSpace=wrap;html=1;" vertex="1" parent="vMjMHNE6Fv7_3eCzwMig-50">
          <mxGeometry y="112" width="370" height="26" as="geometry" />
        </mxCell>
        <mxCell id="vMjMHNE6Fv7_3eCzwMig-62" style="edgeStyle=orthogonalEdgeStyle;rounded=0;orthogonalLoop=1;jettySize=auto;html=1;" edge="1" parent="1" source="vMjMHNE6Fv7_3eCzwMig-56" target="vMjMHNE6Fv7_3eCzwMig-32">
          <mxGeometry relative="1" as="geometry" />
        </mxCell>
        <mxCell id="vMjMHNE6Fv7_3eCzwMig-56" value="prey.rs &amp;lt;&amp;lt;enumeration&amp;gt;&amp;gt;" style="swimlane;fontStyle=1;align=center;verticalAlign=top;childLayout=stackLayout;horizontal=1;startSize=26;horizontalStack=0;resizeParent=1;resizeParentMax=0;resizeLast=0;collapsible=1;marginBottom=0;whiteSpace=wrap;html=1;" vertex="1" parent="1">
          <mxGeometry x="590" y="640" width="370" height="112" as="geometry" />
        </mxCell>
        <mxCell id="vMjMHNE6Fv7_3eCzwMig-57" value="Sex" style="text;strokeColor=none;fillColor=none;align=left;verticalAlign=top;spacingLeft=4;spacingRight=4;overflow=hidden;rotatable=0;points=[[0,0.5],[1,0.5]];portConstraint=eastwest;whiteSpace=wrap;html=1;" vertex="1" parent="vMjMHNE6Fv7_3eCzwMig-56">
          <mxGeometry y="26" width="370" height="26" as="geometry" />
        </mxCell>
        <mxCell id="vMjMHNE6Fv7_3eCzwMig-58" value="" style="line;strokeWidth=1;fillColor=none;align=left;verticalAlign=middle;spacingTop=-1;spacingLeft=3;spacingRight=3;rotatable=0;labelPosition=right;points=[];portConstraint=eastwest;strokeColor=inherit;" vertex="1" parent="vMjMHNE6Fv7_3eCzwMig-56">
          <mxGeometry y="52" width="370" height="8" as="geometry" />
        </mxCell>
        <mxCell id="vMjMHNE6Fv7_3eCzwMig-59" value="Male" style="text;strokeColor=none;fillColor=none;align=left;verticalAlign=top;spacingLeft=4;spacingRight=4;overflow=hidden;rotatable=0;points=[[0,0.5],[1,0.5]];portConstraint=eastwest;whiteSpace=wrap;html=1;" vertex="1" parent="vMjMHNE6Fv7_3eCzwMig-56">
          <mxGeometry y="60" width="370" height="26" as="geometry" />
        </mxCell>
        <mxCell id="vMjMHNE6Fv7_3eCzwMig-60" value="Female" style="text;strokeColor=none;fillColor=none;align=left;verticalAlign=top;spacingLeft=4;spacingRight=4;overflow=hidden;rotatable=0;points=[[0,0.5],[1,0.5]];portConstraint=eastwest;whiteSpace=wrap;html=1;" vertex="1" parent="vMjMHNE6Fv7_3eCzwMig-56">
          <mxGeometry y="86" width="370" height="26" as="geometry" />
        </mxCell>
        <mxCell id="vMjMHNE6Fv7_3eCzwMig-96" style="edgeStyle=orthogonalEdgeStyle;rounded=0;orthogonalLoop=1;jettySize=auto;html=1;" edge="1" parent="1" source="vMjMHNE6Fv7_3eCzwMig-65" target="vMjMHNE6Fv7_3eCzwMig-85">
          <mxGeometry relative="1" as="geometry" />
        </mxCell>
        <mxCell id="vMjMHNE6Fv7_3eCzwMig-65" value="predator.rs" style="swimlane;fontStyle=1;align=center;verticalAlign=top;childLayout=stackLayout;horizontal=1;startSize=26;horizontalStack=0;resizeParent=1;resizeParentMax=0;resizeLast=0;collapsible=1;marginBottom=0;whiteSpace=wrap;html=1;" vertex="1" parent="1">
          <mxGeometry x="-280" y="470" width="370" height="320" as="geometry" />
        </mxCell>
        <mxCell id="vMjMHNE6Fv7_3eCzwMig-66" value="+ min_reserve: f64" style="text;strokeColor=none;fillColor=none;align=left;verticalAlign=top;spacingLeft=4;spacingRight=4;overflow=hidden;rotatable=0;points=[[0,0.5],[1,0.5]];portConstraint=eastwest;whiteSpace=wrap;html=1;" vertex="1" parent="vMjMHNE6Fv7_3eCzwMig-65">
          <mxGeometry y="26" width="370" height="26" as="geometry" />
        </mxCell>
        <mxCell id="vMjMHNE6Fv7_3eCzwMig-74" value="+ opt_reserve: f64" style="text;strokeColor=none;fillColor=none;align=left;verticalAlign=top;spacingLeft=4;spacingRight=4;overflow=hidden;rotatable=0;points=[[0,0.5],[1,0.5]];portConstraint=eastwest;whiteSpace=wrap;html=1;" vertex="1" parent="vMjMHNE6Fv7_3eCzwMig-65">
          <mxGeometry y="52" width="370" height="26" as="geometry" />
        </mxCell>
        <mxCell id="vMjMHNE6Fv7_3eCzwMig-75" value="+ current_reserve: f64" style="text;strokeColor=none;fillColor=none;align=left;verticalAlign=top;spacingLeft=4;spacingRight=4;overflow=hidden;rotatable=0;points=[[0,0.5],[1,0.5]];portConstraint=eastwest;whiteSpace=wrap;html=1;" vertex="1" parent="vMjMHNE6Fv7_3eCzwMig-65">
          <mxGeometry y="78" width="370" height="26" as="geometry" />
        </mxCell>
        <mxCell id="vMjMHNE6Fv7_3eCzwMig-73" value="+ sacrifice_age_days: u32" style="text;strokeColor=none;fillColor=none;align=left;verticalAlign=top;spacingLeft=4;spacingRight=4;overflow=hidden;rotatable=0;points=[[0,0.5],[1,0.5]];portConstraint=eastwest;whiteSpace=wrap;html=1;" vertex="1" parent="vMjMHNE6Fv7_3eCzwMig-65">
          <mxGeometry y="104" width="370" height="26" as="geometry" />
        </mxCell>
        <mxCell id="vMjMHNE6Fv7_3eCzwMig-76" value="+ enfermo: bool" style="text;strokeColor=none;fillColor=none;align=left;verticalAlign=top;spacingLeft=4;spacingRight=4;overflow=hidden;rotatable=0;points=[[0,0.5],[1,0.5]];portConstraint=eastwest;whiteSpace=wrap;html=1;" vertex="1" parent="vMjMHNE6Fv7_3eCzwMig-65">
          <mxGeometry y="130" width="370" height="26" as="geometry" />
        </mxCell>
        <mxCell id="vMjMHNE6Fv7_3eCzwMig-77" value="+ consumido_hoy: f64" style="text;strokeColor=none;fillColor=none;align=left;verticalAlign=top;spacingLeft=4;spacingRight=4;overflow=hidden;rotatable=0;points=[[0,0.5],[1,0.5]];portConstraint=eastwest;whiteSpace=wrap;html=1;" vertex="1" parent="vMjMHNE6Fv7_3eCzwMig-65">
          <mxGeometry y="156" width="370" height="26" as="geometry" />
        </mxCell>
        <mxCell id="vMjMHNE6Fv7_3eCzwMig-67" value="" style="line;strokeWidth=1;fillColor=none;align=left;verticalAlign=middle;spacingTop=-1;spacingLeft=3;spacingRight=3;rotatable=0;labelPosition=right;points=[];portConstraint=eastwest;strokeColor=inherit;" vertex="1" parent="vMjMHNE6Fv7_3eCzwMig-65">
          <mxGeometry y="182" width="370" height="8" as="geometry" />
        </mxCell>
        <mxCell id="vMjMHNE6Fv7_3eCzwMig-68" value="+ new(type): type" style="text;strokeColor=none;fillColor=none;align=left;verticalAlign=top;spacingLeft=4;spacingRight=4;overflow=hidden;rotatable=0;points=[[0,0.5],[1,0.5]];portConstraint=eastwest;whiteSpace=wrap;html=1;" vertex="1" parent="vMjMHNE6Fv7_3eCzwMig-65">
          <mxGeometry y="190" width="370" height="26" as="geometry" />
        </mxCell>
        <mxCell id="vMjMHNE6Fv7_3eCzwMig-78" value="+ current_reserve():&amp;nbsp;" style="text;strokeColor=none;fillColor=none;align=left;verticalAlign=top;spacingLeft=4;spacingRight=4;overflow=hidden;rotatable=0;points=[[0,0.5],[1,0.5]];portConstraint=eastwest;whiteSpace=wrap;html=1;" vertex="1" parent="vMjMHNE6Fv7_3eCzwMig-65">
          <mxGeometry y="216" width="370" height="26" as="geometry" />
        </mxCell>
        <mxCell id="vMjMHNE6Fv7_3eCzwMig-79" value="+ comenzar_dia():&amp;nbsp;" style="text;strokeColor=none;fillColor=none;align=left;verticalAlign=top;spacingLeft=4;spacingRight=4;overflow=hidden;rotatable=0;points=[[0,0.5],[1,0.5]];portConstraint=eastwest;whiteSpace=wrap;html=1;" vertex="1" parent="vMjMHNE6Fv7_3eCzwMig-65">
          <mxGeometry y="242" width="370" height="26" as="geometry" />
        </mxCell>
        <mxCell id="vMjMHNE6Fv7_3eCzwMig-80" value="+ chequear_al_final_del_dia():&amp;nbsp;" style="text;strokeColor=none;fillColor=none;align=left;verticalAlign=top;spacingLeft=4;spacingRight=4;overflow=hidden;rotatable=0;points=[[0,0.5],[1,0.5]];portConstraint=eastwest;whiteSpace=wrap;html=1;" vertex="1" parent="vMjMHNE6Fv7_3eCzwMig-65">
          <mxGeometry y="268" width="370" height="26" as="geometry" />
        </mxCell>
        <mxCell id="vMjMHNE6Fv7_3eCzwMig-81" value="+ cazar(poblacion Vec, rng):&amp;nbsp;" style="text;strokeColor=none;fillColor=none;align=left;verticalAlign=top;spacingLeft=4;spacingRight=4;overflow=hidden;rotatable=0;points=[[0,0.5],[1,0.5]];portConstraint=eastwest;whiteSpace=wrap;html=1;" vertex="1" parent="vMjMHNE6Fv7_3eCzwMig-65">
          <mxGeometry y="294" width="370" height="26" as="geometry" />
        </mxCell>
        <mxCell id="vMjMHNE6Fv7_3eCzwMig-83" value="Implementa" style="text;html=1;align=center;verticalAlign=middle;resizable=0;points=[];autosize=1;strokeColor=none;fillColor=none;" vertex="1" parent="1">
          <mxGeometry x="-25" y="278" width="90" height="30" as="geometry" />
        </mxCell>
        <mxCell id="vMjMHNE6Fv7_3eCzwMig-84" value="Implementa" style="text;html=1;align=center;verticalAlign=middle;resizable=0;points=[];autosize=1;strokeColor=none;fillColor=none;" vertex="1" parent="1">
          <mxGeometry x="320" y="410" width="90" height="30" as="geometry" />
        </mxCell>
        <mxCell id="vMjMHNE6Fv7_3eCzwMig-85" value="sim.rs" style="swimlane;fontStyle=1;align=center;verticalAlign=top;childLayout=stackLayout;horizontal=1;startSize=26;horizontalStack=0;resizeParent=1;resizeParentMax=0;resizeLast=0;collapsible=1;marginBottom=0;whiteSpace=wrap;html=1;" vertex="1" parent="1">
          <mxGeometry x="-280" y="970" width="370" height="268" as="geometry" />
        </mxCell>
        <mxCell id="vMjMHNE6Fv7_3eCzwMig-86" value="+ day: u32" style="text;strokeColor=none;fillColor=none;align=left;verticalAlign=top;spacingLeft=4;spacingRight=4;overflow=hidden;rotatable=0;points=[[0,0.5],[1,0.5]];portConstraint=eastwest;whiteSpace=wrap;html=1;" vertex="1" parent="vMjMHNE6Fv7_3eCzwMig-85">
          <mxGeometry y="26" width="370" height="26" as="geometry" />
        </mxCell>
        <mxCell id="vMjMHNE6Fv7_3eCzwMig-89" value="+ animals: Vec&amp;lt;Box&amp;lt;dyn Organismo&amp;gt;&amp;gt;" style="text;strokeColor=none;fillColor=none;align=left;verticalAlign=top;spacingLeft=4;spacingRight=4;overflow=hidden;rotatable=0;points=[[0,0.5],[1,0.5]];portConstraint=eastwest;whiteSpace=wrap;html=1;" vertex="1" parent="vMjMHNE6Fv7_3eCzwMig-85">
          <mxGeometry y="52" width="370" height="26" as="geometry" />
        </mxCell>
        <mxCell id="vMjMHNE6Fv7_3eCzwMig-90" value="+ predator:&amp;nbsp; Predator" style="text;strokeColor=none;fillColor=none;align=left;verticalAlign=top;spacingLeft=4;spacingRight=4;overflow=hidden;rotatable=0;points=[[0,0.5],[1,0.5]];portConstraint=eastwest;whiteSpace=wrap;html=1;" vertex="1" parent="vMjMHNE6Fv7_3eCzwMig-85">
          <mxGeometry y="78" width="370" height="26" as="geometry" />
        </mxCell>
        <mxCell id="vMjMHNE6Fv7_3eCzwMig-91" value="+ next_id: u32" style="text;strokeColor=none;fillColor=none;align=left;verticalAlign=top;spacingLeft=4;spacingRight=4;overflow=hidden;rotatable=0;points=[[0,0.5],[1,0.5]];portConstraint=eastwest;whiteSpace=wrap;html=1;" vertex="1" parent="vMjMHNE6Fv7_3eCzwMig-85">
          <mxGeometry y="104" width="370" height="26" as="geometry" />
        </mxCell>
        <mxCell id="vMjMHNE6Fv7_3eCzwMig-87" value="" style="line;strokeWidth=1;fillColor=none;align=left;verticalAlign=middle;spacingTop=-1;spacingLeft=3;spacingRight=3;rotatable=0;labelPosition=right;points=[];portConstraint=eastwest;strokeColor=inherit;" vertex="1" parent="vMjMHNE6Fv7_3eCzwMig-85">
          <mxGeometry y="130" width="370" height="8" as="geometry" />
        </mxCell>
        <mxCell id="vMjMHNE6Fv7_3eCzwMig-88" value="+ new(initial_animals, predator):&amp;nbsp;" style="text;strokeColor=none;fillColor=none;align=left;verticalAlign=top;spacingLeft=4;spacingRight=4;overflow=hidden;rotatable=0;points=[[0,0.5],[1,0.5]];portConstraint=eastwest;whiteSpace=wrap;html=1;" vertex="1" parent="vMjMHNE6Fv7_3eCzwMig-85">
          <mxGeometry y="138" width="370" height="26" as="geometry" />
        </mxCell>
        <mxCell id="vMjMHNE6Fv7_3eCzwMig-92" value="+ get_day():&amp;nbsp;" style="text;strokeColor=none;fillColor=none;align=left;verticalAlign=top;spacingLeft=4;spacingRight=4;overflow=hidden;rotatable=0;points=[[0,0.5],[1,0.5]];portConstraint=eastwest;whiteSpace=wrap;html=1;" vertex="1" parent="vMjMHNE6Fv7_3eCzwMig-85">
          <mxGeometry y="164" width="370" height="26" as="geometry" />
        </mxCell>
        <mxCell id="vMjMHNE6Fv7_3eCzwMig-93" value="+ get_animals():&amp;nbsp;" style="text;strokeColor=none;fillColor=none;align=left;verticalAlign=top;spacingLeft=4;spacingRight=4;overflow=hidden;rotatable=0;points=[[0,0.5],[1,0.5]];portConstraint=eastwest;whiteSpace=wrap;html=1;" vertex="1" parent="vMjMHNE6Fv7_3eCzwMig-85">
          <mxGeometry y="190" width="370" height="26" as="geometry" />
        </mxCell>
        <mxCell id="vMjMHNE6Fv7_3eCzwMig-94" value="+ get_predator():&amp;nbsp;" style="text;strokeColor=none;fillColor=none;align=left;verticalAlign=top;spacingLeft=4;spacingRight=4;overflow=hidden;rotatable=0;points=[[0,0.5],[1,0.5]];portConstraint=eastwest;whiteSpace=wrap;html=1;" vertex="1" parent="vMjMHNE6Fv7_3eCzwMig-85">
          <mxGeometry y="216" width="370" height="26" as="geometry" />
        </mxCell>
        <mxCell id="vMjMHNE6Fv7_3eCzwMig-95" value="+ simulate_day():&amp;nbsp;" style="text;strokeColor=none;fillColor=none;align=left;verticalAlign=top;spacingLeft=4;spacingRight=4;overflow=hidden;rotatable=0;points=[[0,0.5],[1,0.5]];portConstraint=eastwest;whiteSpace=wrap;html=1;" vertex="1" parent="vMjMHNE6Fv7_3eCzwMig-85">
          <mxGeometry y="242" width="370" height="26" as="geometry" />
        </mxCell>
        <mxCell id="vMjMHNE6Fv7_3eCzwMig-103" style="edgeStyle=orthogonalEdgeStyle;rounded=0;orthogonalLoop=1;jettySize=auto;html=1;" edge="1" parent="1" source="vMjMHNE6Fv7_3eCzwMig-98" target="vMjMHNE6Fv7_3eCzwMig-22">
          <mxGeometry relative="1" as="geometry">
            <Array as="points">
              <mxPoint x="360" y="993" />
            </Array>
          </mxGeometry>
        </mxCell>
        <mxCell id="vMjMHNE6Fv7_3eCzwMig-98" value="util.rs" style="swimlane;fontStyle=1;align=center;verticalAlign=top;childLayout=stackLayout;horizontal=1;startSize=26;horizontalStack=0;resizeParent=1;resizeParentMax=0;resizeLast=0;collapsible=1;marginBottom=0;whiteSpace=wrap;html=1;" vertex="1" parent="1">
          <mxGeometry x="590" y="950" width="370" height="86" as="geometry" />
        </mxCell>
        <mxCell id="vMjMHNE6Fv7_3eCzwMig-100" value="" style="line;strokeWidth=1;fillColor=none;align=left;verticalAlign=middle;spacingTop=-1;spacingLeft=3;spacingRight=3;rotatable=0;labelPosition=right;points=[];portConstraint=eastwest;strokeColor=inherit;" vertex="1" parent="vMjMHNE6Fv7_3eCzwMig-98">
          <mxGeometry y="26" width="370" height="8" as="geometry" />
        </mxCell>
        <mxCell id="vMjMHNE6Fv7_3eCzwMig-101" value="+ crecimiento_gompertz(a,b,k): type" style="text;strokeColor=none;fillColor=none;align=left;verticalAlign=top;spacingLeft=4;spacingRight=4;overflow=hidden;rotatable=0;points=[[0,0.5],[1,0.5]];portConstraint=eastwest;whiteSpace=wrap;html=1;" vertex="1" parent="vMjMHNE6Fv7_3eCzwMig-98">
          <mxGeometry y="34" width="370" height="26" as="geometry" />
        </mxCell>
        <mxCell id="vMjMHNE6Fv7_3eCzwMig-102" value="+ probabilidad(p, rng): bool, p" style="text;strokeColor=none;fillColor=none;align=left;verticalAlign=top;spacingLeft=4;spacingRight=4;overflow=hidden;rotatable=0;points=[[0,0.5],[1,0.5]];portConstraint=eastwest;whiteSpace=wrap;html=1;" vertex="1" parent="vMjMHNE6Fv7_3eCzwMig-98">
          <mxGeometry y="60" width="370" height="26" as="geometry" />
        </mxCell>
      </root>
    </mxGraphModel>
  </diagram>
  <diagram id="Bwi3p-R9Xoh7sXYE9AND" name="DiagramaFlujo">
    <mxGraphModel dx="3880" dy="3768" grid="1" gridSize="10" guides="1" tooltips="1" connect="1" arrows="1" fold="1" page="0" pageScale="1" pageWidth="827" pageHeight="1169" math="0" shadow="0">
      <root>
        <mxCell id="0" />
        <mxCell id="1" parent="0" />
        <mxCell id="nxxNgkx0aRaaO36RyPeu-2" style="edgeStyle=orthogonalEdgeStyle;rounded=0;orthogonalLoop=1;jettySize=auto;html=1;" edge="1" parent="1" source="nxxNgkx0aRaaO36RyPeu-1" target="nxxNgkx0aRaaO36RyPeu-3">
          <mxGeometry relative="1" as="geometry">
            <mxPoint x="-80" y="-160" as="targetPoint" />
          </mxGeometry>
        </mxCell>
        <mxCell id="nxxNgkx0aRaaO36RyPeu-1" value="" style="html=1;verticalLabelPosition=bottom;align=center;labelBackgroundColor=#ffffff;verticalAlign=top;strokeWidth=2;strokeColor=#0080F0;shadow=0;dashed=0;shape=mxgraph.ios7.icons.user;" vertex="1" parent="1">
          <mxGeometry x="-150" y="-370" width="140" height="130" as="geometry" />
        </mxCell>
        <mxCell id="nxxNgkx0aRaaO36RyPeu-6" style="edgeStyle=orthogonalEdgeStyle;rounded=0;orthogonalLoop=1;jettySize=auto;html=1;" edge="1" parent="1" source="nxxNgkx0aRaaO36RyPeu-3" target="nxxNgkx0aRaaO36RyPeu-5">
          <mxGeometry relative="1" as="geometry" />
        </mxCell>
        <mxCell id="nxxNgkx0aRaaO36RyPeu-3" value="Se crean las presas con su especie, sexo y probabilidad de enfermar" style="rounded=1;whiteSpace=wrap;html=1;" vertex="1" parent="1">
          <mxGeometry x="-210" y="-180" width="260" height="60" as="geometry" />
        </mxCell>
        <mxCell id="nxxNgkx0aRaaO36RyPeu-4" value="Main" style="swimlane;" vertex="1" parent="1">
          <mxGeometry x="-240" y="-470" width="350" height="2080" as="geometry" />
        </mxCell>
        <mxCell id="nxxNgkx0aRaaO36RyPeu-8" style="edgeStyle=orthogonalEdgeStyle;rounded=0;orthogonalLoop=1;jettySize=auto;html=1;entryX=0.5;entryY=0;entryDx=0;entryDy=0;" edge="1" parent="nxxNgkx0aRaaO36RyPeu-4" source="nxxNgkx0aRaaO36RyPeu-5" target="nxxNgkx0aRaaO36RyPeu-7">
          <mxGeometry relative="1" as="geometry" />
        </mxCell>
        <mxCell id="nxxNgkx0aRaaO36RyPeu-5" value="Se crea el depredador con las reserva de comida y el dia de puede comer una presa&amp;nbsp;" style="rounded=1;whiteSpace=wrap;html=1;" vertex="1" parent="nxxNgkx0aRaaO36RyPeu-4">
          <mxGeometry x="30" y="440" width="260" height="60" as="geometry" />
        </mxCell>
        <mxCell id="nxxNgkx0aRaaO36RyPeu-7" value="Se pone la cantidad de días a simular" style="rounded=1;whiteSpace=wrap;html=1;" vertex="1" parent="nxxNgkx0aRaaO36RyPeu-4">
          <mxGeometry x="30" y="590" width="260" height="60" as="geometry" />
        </mxCell>
        <mxCell id="nxxNgkx0aRaaO36RyPeu-92" style="edgeStyle=orthogonalEdgeStyle;rounded=0;orthogonalLoop=1;jettySize=auto;html=1;" edge="1" parent="nxxNgkx0aRaaO36RyPeu-4" source="nxxNgkx0aRaaO36RyPeu-86" target="nxxNgkx0aRaaO36RyPeu-87">
          <mxGeometry relative="1" as="geometry" />
        </mxCell>
        <mxCell id="nxxNgkx0aRaaO36RyPeu-86" value="Mostrar resultados de presas depredador y día" style="rounded=1;whiteSpace=wrap;html=1;" vertex="1" parent="nxxNgkx0aRaaO36RyPeu-4">
          <mxGeometry x="40" y="1800" width="260" height="60" as="geometry" />
        </mxCell>
        <mxCell id="nxxNgkx0aRaaO36RyPeu-91" style="edgeStyle=orthogonalEdgeStyle;rounded=0;orthogonalLoop=1;jettySize=auto;html=1;" edge="1" parent="nxxNgkx0aRaaO36RyPeu-4" source="nxxNgkx0aRaaO36RyPeu-85" target="nxxNgkx0aRaaO36RyPeu-86">
          <mxGeometry relative="1" as="geometry" />
        </mxCell>
        <mxCell id="nxxNgkx0aRaaO36RyPeu-85" value="Mostrar resultados de presas depredador y día" style="rounded=1;whiteSpace=wrap;html=1;" vertex="1" parent="nxxNgkx0aRaaO36RyPeu-4">
          <mxGeometry x="40" y="1680" width="260" height="60" as="geometry" />
        </mxCell>
        <mxCell id="nxxNgkx0aRaaO36RyPeu-87" value="Pantalla actualizada" style="rounded=1;whiteSpace=wrap;html=1;" vertex="1" parent="nxxNgkx0aRaaO36RyPeu-4">
          <mxGeometry x="40" y="1910" width="260" height="60" as="geometry" />
        </mxCell>
        <mxCell id="nxxNgkx0aRaaO36RyPeu-9" value="simulador" style="swimlane;" vertex="1" parent="1">
          <mxGeometry x="110" y="-470" width="350" height="2080" as="geometry" />
        </mxCell>
        <mxCell id="nxxNgkx0aRaaO36RyPeu-13" value="Se llama el metodo envejecer" style="rounded=1;whiteSpace=wrap;html=1;fillColor=#60a917;fontColor=#ffffff;strokeColor=#2D7600;" vertex="1" parent="nxxNgkx0aRaaO36RyPeu-9">
          <mxGeometry x="45" y="100" width="260" height="60" as="geometry" />
        </mxCell>
        <mxCell id="nxxNgkx0aRaaO36RyPeu-32" style="edgeStyle=orthogonalEdgeStyle;rounded=0;orthogonalLoop=1;jettySize=auto;html=1;" edge="1" parent="nxxNgkx0aRaaO36RyPeu-9" source="nxxNgkx0aRaaO36RyPeu-28" target="nxxNgkx0aRaaO36RyPeu-31">
          <mxGeometry relative="1" as="geometry" />
        </mxCell>
        <mxCell id="nxxNgkx0aRaaO36RyPeu-28" value="Se retorna el estado actual de la población" style="rounded=1;whiteSpace=wrap;html=1;fillColor=#60a917;fontColor=#ffffff;strokeColor=#2D7600;" vertex="1" parent="nxxNgkx0aRaaO36RyPeu-9">
          <mxGeometry x="45" y="190" width="260" height="60" as="geometry" />
        </mxCell>
        <mxCell id="nxxNgkx0aRaaO36RyPeu-31" value="Se llama el metodo reproducirse" style="rounded=1;whiteSpace=wrap;html=1;fillColor=#0050ef;fontColor=#ffffff;strokeColor=#001DBC;" vertex="1" parent="nxxNgkx0aRaaO36RyPeu-9">
          <mxGeometry x="45" y="310" width="260" height="60" as="geometry" />
        </mxCell>
        <mxCell id="nxxNgkx0aRaaO36RyPeu-43" style="edgeStyle=orthogonalEdgeStyle;rounded=0;orthogonalLoop=1;jettySize=auto;html=1;entryX=0.5;entryY=0;entryDx=0;entryDy=0;" edge="1" parent="nxxNgkx0aRaaO36RyPeu-9" source="nxxNgkx0aRaaO36RyPeu-39" target="nxxNgkx0aRaaO36RyPeu-42">
          <mxGeometry relative="1" as="geometry" />
        </mxCell>
        <mxCell id="nxxNgkx0aRaaO36RyPeu-39" value="Se actualizan la cantidad de presas" style="rounded=1;whiteSpace=wrap;html=1;fillColor=#0050ef;fontColor=#ffffff;strokeColor=#001DBC;" vertex="1" parent="nxxNgkx0aRaaO36RyPeu-9">
          <mxGeometry x="45" y="580" width="260" height="60" as="geometry" />
        </mxCell>
        <mxCell id="nxxNgkx0aRaaO36RyPeu-42" value="Se llama el metodo de cazar animal" style="rounded=1;whiteSpace=wrap;html=1;fillColor=#a20025;fontColor=#ffffff;strokeColor=#6F0000;" vertex="1" parent="nxxNgkx0aRaaO36RyPeu-9">
          <mxGeometry x="45" y="690" width="260" height="60" as="geometry" />
        </mxCell>
        <mxCell id="nxxNgkx0aRaaO36RyPeu-67" style="edgeStyle=orthogonalEdgeStyle;rounded=0;orthogonalLoop=1;jettySize=auto;html=1;entryX=0.5;entryY=0;entryDx=0;entryDy=0;" edge="1" parent="nxxNgkx0aRaaO36RyPeu-9" source="nxxNgkx0aRaaO36RyPeu-65" target="nxxNgkx0aRaaO36RyPeu-39">
          <mxGeometry relative="1" as="geometry" />
        </mxCell>
        <mxCell id="nxxNgkx0aRaaO36RyPeu-65" value="No se crean nuevas presas" style="rounded=1;whiteSpace=wrap;html=1;fillColor=#0050ef;fontColor=#ffffff;strokeColor=#001DBC;" vertex="1" parent="nxxNgkx0aRaaO36RyPeu-9">
          <mxGeometry x="45" y="485" width="260" height="60" as="geometry" />
        </mxCell>
        <mxCell id="nxxNgkx0aRaaO36RyPeu-82" style="edgeStyle=orthogonalEdgeStyle;rounded=0;orthogonalLoop=1;jettySize=auto;html=1;" edge="1" parent="nxxNgkx0aRaaO36RyPeu-9" source="nxxNgkx0aRaaO36RyPeu-77" target="nxxNgkx0aRaaO36RyPeu-81">
          <mxGeometry relative="1" as="geometry" />
        </mxCell>
        <mxCell id="nxxNgkx0aRaaO36RyPeu-77" value="Actualizar estado del depredador" style="rounded=1;whiteSpace=wrap;html=1;fillColor=#a20025;fontColor=#ffffff;strokeColor=#6F0000;" vertex="1" parent="nxxNgkx0aRaaO36RyPeu-9">
          <mxGeometry x="32.5" y="1310" width="260" height="60" as="geometry" />
        </mxCell>
        <mxCell id="nxxNgkx0aRaaO36RyPeu-84" style="edgeStyle=orthogonalEdgeStyle;rounded=0;orthogonalLoop=1;jettySize=auto;html=1;" edge="1" parent="nxxNgkx0aRaaO36RyPeu-9" source="nxxNgkx0aRaaO36RyPeu-81" target="nxxNgkx0aRaaO36RyPeu-83">
          <mxGeometry relative="1" as="geometry" />
        </mxCell>
        <mxCell id="nxxNgkx0aRaaO36RyPeu-81" value="eliminar de la lista presas muertas" style="rounded=1;whiteSpace=wrap;html=1;" vertex="1" parent="nxxNgkx0aRaaO36RyPeu-9">
          <mxGeometry x="32.5" y="1480" width="260" height="60" as="geometry" />
        </mxCell>
        <mxCell id="nxxNgkx0aRaaO36RyPeu-83" value="Se aumenta el ciclo de vida" style="rounded=1;whiteSpace=wrap;html=1;" vertex="1" parent="nxxNgkx0aRaaO36RyPeu-9">
          <mxGeometry x="32.5" y="1600" width="260" height="60" as="geometry" />
        </mxCell>
        <mxCell id="nxxNgkx0aRaaO36RyPeu-14" style="edgeStyle=orthogonalEdgeStyle;rounded=0;orthogonalLoop=1;jettySize=auto;html=1;entryX=0;entryY=0.5;entryDx=0;entryDy=0;" edge="1" parent="1" source="nxxNgkx0aRaaO36RyPeu-7" target="nxxNgkx0aRaaO36RyPeu-13">
          <mxGeometry relative="1" as="geometry">
            <Array as="points">
              <mxPoint x="80" y="150" />
              <mxPoint x="80" y="-340" />
            </Array>
          </mxGeometry>
        </mxCell>
        <mxCell id="nxxNgkx0aRaaO36RyPeu-15" value="Prey" style="swimlane;" vertex="1" parent="1">
          <mxGeometry x="460" y="-470" width="350" height="2080" as="geometry" />
        </mxCell>
        <mxCell id="nxxNgkx0aRaaO36RyPeu-63" style="edgeStyle=orthogonalEdgeStyle;rounded=0;orthogonalLoop=1;jettySize=auto;html=1;" edge="1" parent="nxxNgkx0aRaaO36RyPeu-15" source="nxxNgkx0aRaaO36RyPeu-35" target="nxxNgkx0aRaaO36RyPeu-62">
          <mxGeometry relative="1" as="geometry" />
        </mxCell>
        <mxCell id="nxxNgkx0aRaaO36RyPeu-35" value="Retorna la probabilidad de cada presa" style="rounded=1;whiteSpace=wrap;html=1;fillColor=#0050ef;fontColor=#ffffff;strokeColor=#001DBC;" vertex="1" parent="nxxNgkx0aRaaO36RyPeu-15">
          <mxGeometry x="40" y="380" width="260" height="60" as="geometry" />
        </mxCell>
        <mxCell id="nxxNgkx0aRaaO36RyPeu-37" value="Se llama el metodo de nuevas presas" style="rounded=1;whiteSpace=wrap;html=1;fillColor=#0050ef;fontColor=#ffffff;strokeColor=#001DBC;" vertex="1" parent="nxxNgkx0aRaaO36RyPeu-15">
          <mxGeometry x="40" y="580" width="260" height="60" as="geometry" />
        </mxCell>
        <mxCell id="nxxNgkx0aRaaO36RyPeu-50" value="Actualiza la reserva de comida y lo consumido ese día&lt;span style=&quot;color: rgba(0, 0, 0, 0); font-family: monospace; font-size: 0px; text-align: start; text-wrap: nowrap;&quot;&gt;%3CmxGraphModel%3E%3Croot%3E%3CmxCell%20id%3D%220%22%2F%3E%3CmxCell%20id%3D%221%22%20parent%3D%220%22%2F%3E%3CmxCell%20id%3D%222%22%20value%3D%22Elimina%20la%20presa%22%20style%3D%22rounded%3D1%3BwhiteSpace%3Dwrap%3Bhtml%3D1%3B%22%20vertex%3D%221%22%20parent%3D%221%22%3E%3CmxGeometry%20x%3D%22855%22%20y%3D%22330%22%20width%3D%22260%22%20height%3D%2260%22%20as%3D%22geometry%22%2F%3E%3C%2FmxCell%3E%3C%2Froot%3E%3C%2FmxGraphModel%3E&lt;/span&gt;" style="rounded=1;whiteSpace=wrap;html=1;fillColor=#a20025;fontColor=#ffffff;strokeColor=#6F0000;" vertex="1" parent="nxxNgkx0aRaaO36RyPeu-15">
          <mxGeometry x="397.5" y="1070" width="260" height="60" as="geometry" />
        </mxCell>
        <mxCell id="nxxNgkx0aRaaO36RyPeu-48" value="Elimina la presa" style="rounded=1;whiteSpace=wrap;html=1;fillColor=#a20025;fontColor=#ffffff;strokeColor=#6F0000;" vertex="1" parent="nxxNgkx0aRaaO36RyPeu-15">
          <mxGeometry x="397.5" y="950" width="260" height="60" as="geometry" />
        </mxCell>
        <mxCell id="nxxNgkx0aRaaO36RyPeu-46" value="Valida los pesos de cada presa" style="rounded=1;whiteSpace=wrap;html=1;fillColor=#a20025;fontColor=#ffffff;strokeColor=#6F0000;" vertex="1" parent="nxxNgkx0aRaaO36RyPeu-15">
          <mxGeometry x="42.5" y="950" width="260" height="60" as="geometry" />
        </mxCell>
        <mxCell id="nxxNgkx0aRaaO36RyPeu-51" value="Actualiza el estado de presas" style="rounded=1;whiteSpace=wrap;html=1;fillColor=#a20025;fontColor=#ffffff;strokeColor=#6F0000;" vertex="1" parent="nxxNgkx0aRaaO36RyPeu-15">
          <mxGeometry x="-317.5" y="1160" width="260" height="60" as="geometry" />
        </mxCell>
        <mxCell id="nxxNgkx0aRaaO36RyPeu-52" style="edgeStyle=orthogonalEdgeStyle;rounded=0;orthogonalLoop=1;jettySize=auto;html=1;" edge="1" parent="nxxNgkx0aRaaO36RyPeu-15" source="nxxNgkx0aRaaO36RyPeu-48" target="nxxNgkx0aRaaO36RyPeu-50">
          <mxGeometry relative="1" as="geometry" />
        </mxCell>
        <mxCell id="nxxNgkx0aRaaO36RyPeu-49" style="edgeStyle=orthogonalEdgeStyle;rounded=0;orthogonalLoop=1;jettySize=auto;html=1;" edge="1" parent="nxxNgkx0aRaaO36RyPeu-15" source="nxxNgkx0aRaaO36RyPeu-46" target="nxxNgkx0aRaaO36RyPeu-48">
          <mxGeometry relative="1" as="geometry" />
        </mxCell>
        <mxCell id="nxxNgkx0aRaaO36RyPeu-53" style="edgeStyle=orthogonalEdgeStyle;rounded=0;orthogonalLoop=1;jettySize=auto;html=1;" edge="1" parent="nxxNgkx0aRaaO36RyPeu-15" source="nxxNgkx0aRaaO36RyPeu-50" target="nxxNgkx0aRaaO36RyPeu-51">
          <mxGeometry relative="1" as="geometry" />
        </mxCell>
        <mxCell id="nxxNgkx0aRaaO36RyPeu-64" style="edgeStyle=orthogonalEdgeStyle;rounded=0;orthogonalLoop=1;jettySize=auto;html=1;" edge="1" parent="nxxNgkx0aRaaO36RyPeu-15" source="nxxNgkx0aRaaO36RyPeu-62" target="nxxNgkx0aRaaO36RyPeu-37">
          <mxGeometry relative="1" as="geometry" />
        </mxCell>
        <mxCell id="nxxNgkx0aRaaO36RyPeu-62" value="Probabilidad de presa = 0" style="html=1;whiteSpace=wrap;aspect=fixed;shape=isoRectangle;fillColor=#0050ef;fontColor=#ffffff;strokeColor=#001DBC;" vertex="1" parent="nxxNgkx0aRaaO36RyPeu-15">
          <mxGeometry x="95" y="470" width="150" height="90" as="geometry" />
        </mxCell>
        <mxCell id="nxxNgkx0aRaaO36RyPeu-17" value="Predator" style="swimlane;" vertex="1" parent="1">
          <mxGeometry x="810" y="-470" width="350" height="2080" as="geometry" />
        </mxCell>
        <mxCell id="nxxNgkx0aRaaO36RyPeu-57" style="edgeStyle=orthogonalEdgeStyle;rounded=0;orthogonalLoop=1;jettySize=auto;html=1;" edge="1" parent="nxxNgkx0aRaaO36RyPeu-17" source="nxxNgkx0aRaaO36RyPeu-44" target="nxxNgkx0aRaaO36RyPeu-56">
          <mxGeometry relative="1" as="geometry" />
        </mxCell>
        <mxCell id="nxxNgkx0aRaaO36RyPeu-44" value="Selecciona la presa a cazar" style="rounded=1;whiteSpace=wrap;html=1;fillColor=#a20025;fontColor=#ffffff;strokeColor=#6F0000;" vertex="1" parent="nxxNgkx0aRaaO36RyPeu-17">
          <mxGeometry x="45" y="690" width="260" height="60" as="geometry" />
        </mxCell>
        <mxCell id="nxxNgkx0aRaaO36RyPeu-56" value="Existn presas para cazar" style="html=1;whiteSpace=wrap;aspect=fixed;shape=isoRectangle;fillColor=#a20025;fontColor=#ffffff;strokeColor=#6F0000;" vertex="1" parent="nxxNgkx0aRaaO36RyPeu-17">
          <mxGeometry x="100" y="790" width="150" height="90" as="geometry" />
        </mxCell>
        <mxCell id="nxxNgkx0aRaaO36RyPeu-61" value="No" style="text;html=1;align=center;verticalAlign=middle;resizable=0;points=[];autosize=1;strokeColor=none;fillColor=none;" vertex="1" parent="nxxNgkx0aRaaO36RyPeu-17">
          <mxGeometry x="270" y="798" width="40" height="30" as="geometry" />
        </mxCell>
        <mxCell id="nxxNgkx0aRaaO36RyPeu-71" style="edgeStyle=orthogonalEdgeStyle;rounded=0;orthogonalLoop=1;jettySize=auto;html=1;entryX=0.5;entryY=0;entryDx=0;entryDy=0;" edge="1" parent="nxxNgkx0aRaaO36RyPeu-17" source="nxxNgkx0aRaaO36RyPeu-70" target="nxxNgkx0aRaaO36RyPeu-54">
          <mxGeometry relative="1" as="geometry" />
        </mxCell>
        <mxCell id="nxxNgkx0aRaaO36RyPeu-73" style="edgeStyle=orthogonalEdgeStyle;rounded=0;orthogonalLoop=1;jettySize=auto;html=1;entryX=0;entryY=0.5;entryDx=0;entryDy=0;" edge="1" parent="nxxNgkx0aRaaO36RyPeu-17" source="nxxNgkx0aRaaO36RyPeu-70" target="nxxNgkx0aRaaO36RyPeu-72">
          <mxGeometry relative="1" as="geometry">
            <Array as="points">
              <mxPoint x="25" y="1215" />
              <mxPoint x="25" y="1440" />
            </Array>
          </mxGeometry>
        </mxCell>
        <mxCell id="nxxNgkx0aRaaO36RyPeu-70" value="Existen reservas" style="html=1;whiteSpace=wrap;aspect=fixed;shape=isoRectangle;fillColor=#a20025;fontColor=#ffffff;strokeColor=#6F0000;" vertex="1" parent="nxxNgkx0aRaaO36RyPeu-17">
          <mxGeometry x="100" y="1170" width="150" height="90" as="geometry" />
        </mxCell>
        <mxCell id="nxxNgkx0aRaaO36RyPeu-54" value="Reduce la reserva" style="rounded=1;whiteSpace=wrap;html=1;fillColor=#a20025;fontColor=#ffffff;strokeColor=#6F0000;" vertex="1" parent="nxxNgkx0aRaaO36RyPeu-17">
          <mxGeometry x="45" y="1310" width="260" height="60" as="geometry" />
        </mxCell>
        <mxCell id="nxxNgkx0aRaaO36RyPeu-59" style="edgeStyle=orthogonalEdgeStyle;rounded=0;orthogonalLoop=1;jettySize=auto;html=1;entryX=0.964;entryY=0.528;entryDx=0;entryDy=0;entryPerimeter=0;" edge="1" parent="nxxNgkx0aRaaO36RyPeu-17" source="nxxNgkx0aRaaO36RyPeu-56" target="nxxNgkx0aRaaO36RyPeu-70">
          <mxGeometry relative="1" as="geometry">
            <Array as="points">
              <mxPoint x="327" y="835" />
              <mxPoint x="327" y="1215" />
              <mxPoint x="245" y="1215" />
            </Array>
          </mxGeometry>
        </mxCell>
        <mxCell id="nxxNgkx0aRaaO36RyPeu-72" value="Enfermar y morir" style="rounded=1;whiteSpace=wrap;html=1;fillColor=#a20025;fontColor=#ffffff;strokeColor=#6F0000;" vertex="1" parent="nxxNgkx0aRaaO36RyPeu-17">
          <mxGeometry x="45" y="1410" width="260" height="60" as="geometry" />
        </mxCell>
        <mxCell id="nxxNgkx0aRaaO36RyPeu-19" value="util" style="swimlane;" vertex="1" parent="1">
          <mxGeometry x="1160" y="-470" width="350" height="2080" as="geometry" />
        </mxCell>
        <mxCell id="nxxNgkx0aRaaO36RyPeu-20" value="Se calcula el crecimiento_gompertz" style="rounded=1;whiteSpace=wrap;html=1;fillColor=#60a917;fontColor=#ffffff;strokeColor=#2D7600;" vertex="1" parent="nxxNgkx0aRaaO36RyPeu-19">
          <mxGeometry x="45" y="100" width="260" height="60" as="geometry" />
        </mxCell>
        <mxCell id="nxxNgkx0aRaaO36RyPeu-33" value="Se calcula la probabilidad" style="rounded=1;whiteSpace=wrap;html=1;fillColor=#0050ef;fontColor=#ffffff;strokeColor=#001DBC;" vertex="1" parent="nxxNgkx0aRaaO36RyPeu-19">
          <mxGeometry x="45" y="310" width="260" height="60" as="geometry" />
        </mxCell>
        <mxCell id="nxxNgkx0aRaaO36RyPeu-25" style="edgeStyle=orthogonalEdgeStyle;rounded=0;orthogonalLoop=1;jettySize=auto;html=1;" edge="1" parent="1" source="nxxNgkx0aRaaO36RyPeu-13" target="nxxNgkx0aRaaO36RyPeu-20">
          <mxGeometry relative="1" as="geometry" />
        </mxCell>
        <mxCell id="nxxNgkx0aRaaO36RyPeu-26" style="edgeStyle=orthogonalEdgeStyle;rounded=0;orthogonalLoop=1;jettySize=auto;html=1;" edge="1" parent="1" source="nxxNgkx0aRaaO36RyPeu-20" target="nxxNgkx0aRaaO36RyPeu-13">
          <mxGeometry relative="1" as="geometry" />
        </mxCell>
        <mxCell id="nxxNgkx0aRaaO36RyPeu-29" style="edgeStyle=orthogonalEdgeStyle;rounded=0;orthogonalLoop=1;jettySize=auto;html=1;" edge="1" parent="1" source="nxxNgkx0aRaaO36RyPeu-20" target="nxxNgkx0aRaaO36RyPeu-28">
          <mxGeometry relative="1" as="geometry">
            <Array as="points">
              <mxPoint x="1335" y="-250" />
            </Array>
          </mxGeometry>
        </mxCell>
        <mxCell id="nxxNgkx0aRaaO36RyPeu-30" value="Etapa de Envejecimiento" style="rounded=1;whiteSpace=wrap;html=1;fillColor=#60a917;fontColor=#ffffff;strokeColor=#2D7600;" vertex="1" parent="1">
          <mxGeometry x="-620" y="-450" width="260" height="60" as="geometry" />
        </mxCell>
        <mxCell id="nxxNgkx0aRaaO36RyPeu-34" style="edgeStyle=orthogonalEdgeStyle;rounded=0;orthogonalLoop=1;jettySize=auto;html=1;" edge="1" parent="1" source="nxxNgkx0aRaaO36RyPeu-31" target="nxxNgkx0aRaaO36RyPeu-33">
          <mxGeometry relative="1" as="geometry" />
        </mxCell>
        <mxCell id="nxxNgkx0aRaaO36RyPeu-36" style="edgeStyle=orthogonalEdgeStyle;rounded=0;orthogonalLoop=1;jettySize=auto;html=1;entryX=1;entryY=0.5;entryDx=0;entryDy=0;" edge="1" parent="1" source="nxxNgkx0aRaaO36RyPeu-33" target="nxxNgkx0aRaaO36RyPeu-35">
          <mxGeometry relative="1" as="geometry">
            <Array as="points">
              <mxPoint x="1335" y="-60" />
            </Array>
          </mxGeometry>
        </mxCell>
        <mxCell id="nxxNgkx0aRaaO36RyPeu-40" style="edgeStyle=orthogonalEdgeStyle;rounded=0;orthogonalLoop=1;jettySize=auto;html=1;" edge="1" parent="1" source="nxxNgkx0aRaaO36RyPeu-37" target="nxxNgkx0aRaaO36RyPeu-39">
          <mxGeometry relative="1" as="geometry" />
        </mxCell>
        <mxCell id="nxxNgkx0aRaaO36RyPeu-41" value="Etapa de Reproduccion" style="rounded=1;whiteSpace=wrap;html=1;fillColor=#0050ef;fontColor=#ffffff;strokeColor=#001DBC;" vertex="1" parent="1">
          <mxGeometry x="-620" y="-380" width="260" height="60" as="geometry" />
        </mxCell>
        <mxCell id="nxxNgkx0aRaaO36RyPeu-45" style="edgeStyle=orthogonalEdgeStyle;rounded=0;orthogonalLoop=1;jettySize=auto;html=1;entryX=0;entryY=0.5;entryDx=0;entryDy=0;" edge="1" parent="1" source="nxxNgkx0aRaaO36RyPeu-42" target="nxxNgkx0aRaaO36RyPeu-44">
          <mxGeometry relative="1" as="geometry" />
        </mxCell>
        <mxCell id="nxxNgkx0aRaaO36RyPeu-58" style="edgeStyle=orthogonalEdgeStyle;rounded=0;orthogonalLoop=1;jettySize=auto;html=1;" edge="1" parent="1" source="nxxNgkx0aRaaO36RyPeu-56" target="nxxNgkx0aRaaO36RyPeu-46">
          <mxGeometry relative="1" as="geometry" />
        </mxCell>
        <mxCell id="nxxNgkx0aRaaO36RyPeu-60" value="Si" style="text;html=1;align=center;verticalAlign=middle;resizable=0;points=[];autosize=1;strokeColor=none;fillColor=none;" vertex="1" parent="1">
          <mxGeometry x="825" y="338" width="30" height="30" as="geometry" />
        </mxCell>
        <mxCell id="nxxNgkx0aRaaO36RyPeu-66" style="edgeStyle=orthogonalEdgeStyle;rounded=0;orthogonalLoop=1;jettySize=auto;html=1;" edge="1" parent="1" source="nxxNgkx0aRaaO36RyPeu-62" target="nxxNgkx0aRaaO36RyPeu-65">
          <mxGeometry relative="1" as="geometry" />
        </mxCell>
        <mxCell id="nxxNgkx0aRaaO36RyPeu-68" value="Si" style="text;html=1;align=center;verticalAlign=middle;resizable=0;points=[];autosize=1;strokeColor=none;fillColor=none;" vertex="1" parent="1">
          <mxGeometry x="525" y="18" width="30" height="30" as="geometry" />
        </mxCell>
        <mxCell id="nxxNgkx0aRaaO36RyPeu-69" value="No" style="text;html=1;align=center;verticalAlign=middle;resizable=0;points=[];autosize=1;strokeColor=none;fillColor=none;" vertex="1" parent="1">
          <mxGeometry x="660" y="78" width="40" height="30" as="geometry" />
        </mxCell>
        <mxCell id="nxxNgkx0aRaaO36RyPeu-74" value="No" style="text;html=1;align=center;verticalAlign=middle;resizable=0;points=[];autosize=1;strokeColor=none;fillColor=none;" vertex="1" parent="1">
          <mxGeometry x="860" y="718" width="40" height="30" as="geometry" />
        </mxCell>
        <mxCell id="nxxNgkx0aRaaO36RyPeu-75" value="Si" style="text;html=1;align=center;verticalAlign=middle;resizable=0;points=[];autosize=1;strokeColor=none;fillColor=none;" vertex="1" parent="1">
          <mxGeometry x="985" y="798" width="30" height="30" as="geometry" />
        </mxCell>
        <mxCell id="nxxNgkx0aRaaO36RyPeu-76" style="edgeStyle=orthogonalEdgeStyle;rounded=0;orthogonalLoop=1;jettySize=auto;html=1;entryX=1;entryY=0.5;entryDx=0;entryDy=0;" edge="1" parent="1" source="nxxNgkx0aRaaO36RyPeu-54" target="nxxNgkx0aRaaO36RyPeu-51">
          <mxGeometry relative="1" as="geometry" />
        </mxCell>
        <mxCell id="nxxNgkx0aRaaO36RyPeu-78" style="edgeStyle=orthogonalEdgeStyle;rounded=0;orthogonalLoop=1;jettySize=auto;html=1;entryX=1;entryY=0.5;entryDx=0;entryDy=0;" edge="1" parent="1" source="nxxNgkx0aRaaO36RyPeu-72" target="nxxNgkx0aRaaO36RyPeu-77">
          <mxGeometry relative="1" as="geometry">
            <Array as="points">
              <mxPoint x="610" y="970" />
              <mxPoint x="610" y="870" />
            </Array>
          </mxGeometry>
        </mxCell>
        <mxCell id="nxxNgkx0aRaaO36RyPeu-79" style="edgeStyle=orthogonalEdgeStyle;rounded=0;orthogonalLoop=1;jettySize=auto;html=1;entryX=0.5;entryY=0;entryDx=0;entryDy=0;" edge="1" parent="1" source="nxxNgkx0aRaaO36RyPeu-51" target="nxxNgkx0aRaaO36RyPeu-77">
          <mxGeometry relative="1" as="geometry" />
        </mxCell>
        <mxCell id="nxxNgkx0aRaaO36RyPeu-80" value="Etapa de cazar" style="rounded=1;whiteSpace=wrap;html=1;fillColor=#a20025;fontColor=#ffffff;strokeColor=#6F0000;" vertex="1" parent="1">
          <mxGeometry x="-620" y="-310" width="260" height="60" as="geometry" />
        </mxCell>
        <mxCell id="nxxNgkx0aRaaO36RyPeu-88" value="Fin&amp;nbsp;" style="ellipse;shape=doubleEllipse;whiteSpace=wrap;html=1;aspect=fixed;fillColor=#000000;" vertex="1" parent="1">
          <mxGeometry x="-110" y="1640" width="80" height="80" as="geometry" />
        </mxCell>
        <mxCell id="nxxNgkx0aRaaO36RyPeu-89" value="Fin" style="text;html=1;align=center;verticalAlign=middle;resizable=0;points=[];autosize=1;strokeColor=none;fillColor=none;" vertex="1" parent="1">
          <mxGeometry x="-90" y="1728" width="40" height="30" as="geometry" />
        </mxCell>
        <mxCell id="nxxNgkx0aRaaO36RyPeu-90" style="edgeStyle=orthogonalEdgeStyle;rounded=0;orthogonalLoop=1;jettySize=auto;html=1;" edge="1" parent="1" source="nxxNgkx0aRaaO36RyPeu-83" target="nxxNgkx0aRaaO36RyPeu-85">
          <mxGeometry relative="1" as="geometry" />
        </mxCell>
        <mxCell id="nxxNgkx0aRaaO36RyPeu-93" style="edgeStyle=orthogonalEdgeStyle;rounded=0;orthogonalLoop=1;jettySize=auto;html=1;" edge="1" parent="1" source="nxxNgkx0aRaaO36RyPeu-87" target="nxxNgkx0aRaaO36RyPeu-88">
          <mxGeometry relative="1" as="geometry" />
        </mxCell>
      </root>
    </mxGraphModel>
  </diagram>
</mxfile>
